<?xml version="1.0" encoding="utf-8"?>
<svg width="800px" height="800px" viewBox="0 0 24 24" fill="none" xmlns="http://www.w3.org/2000/svg" xmlns:bx="https://boxy-svg.com"><defs><bx:export><bx:file format="svg" href="#object-0" path="Sem título.svg"/><bx:file format="svg" path="Sem título 2.svg"/></bx:export></defs><path d="M 12.755 1.98 L 13.017 0.886 L 12.755 1.98 Z M 14.215 2.974 L 13.419 3.769 L 14.215 2.974 Z M 13.404 2.251 L 13.992 1.29 L 13.404 2.251 Z M 5.389 21.925 L 5.899 20.922 L 5.389 21.925 Z M 4.405 20.943 L 5.408 20.431 L 4.405 20.943 Z M 18.683 21.925 L 18.172 20.922 L 18.683 21.925 Z M 19.666 20.943 L 18.663 20.431 L 19.666 20.943 Z M 18.857 7.614 L 19.652 6.818 L 18.857 7.614 Z M 19.581 8.426 L 20.539 7.837 L 19.581 8.426 Z M 19.849 9.076 L 20.943 8.814 L 19.849 9.076 Z M 4.405 3.148 L 5.408 3.658 L 4.405 3.148 Z M 5.389 2.164 L 5.899 3.166 L 5.389 2.164 Z M 14.253 11.772 C 14.102 11.17 13.491 10.802 12.888 10.953 C 12.286 11.104 11.918 11.715 12.069 12.318 L 14.253 11.772 Z M 14.849 18.795 L 13.758 19.069 C 13.882 19.569 14.333 19.92 14.849 19.92 C 15.366 19.92 15.815 19.569 15.939 19.069 L 14.849 18.795 Z M 17.629 12.318 C 17.779 11.715 17.412 11.104 16.809 10.953 C 16.206 10.802 15.595 11.17 15.444 11.772 L 17.629 12.318 Z M 10.91 19.92 C 11.532 19.92 12.036 19.416 12.036 18.795 C 12.036 18.174 11.532 17.67 10.91 17.67 L 10.91 19.92 Z M 8.924 18.625 L 8.493 19.663 L 8.924 18.625 Z M 7.707 17.407 L 6.666 17.838 L 7.707 17.407 Z M 10.91 13.169 C 11.532 13.169 12.036 12.666 12.036 12.045 C 12.036 11.423 11.532 10.919 10.91 10.919 L 10.91 13.169 Z M 8.924 12.216 L 8.493 11.177 L 8.924 12.216 Z M 7.707 13.434 L 6.666 13.003 L 7.707 13.434 Z M 14.286 2.12 C 14.286 1.501 13.782 0.997 13.161 0.997 C 12.54 0.997 12.036 1.501 12.036 2.12 L 14.286 2.12 Z M 19.709 9.794 C 20.331 9.794 20.834 9.291 20.834 8.67 C 20.834 8.049 20.331 7.545 19.709 7.545 L 19.709 9.794 Z M 16.312 21.046 L 7.76 21.046 L 7.76 23.296 L 16.312 23.296 L 16.312 21.046 Z M 5.286 18.571 L 5.286 5.519 L 3.035 5.519 L 3.035 18.571 L 5.286 18.571 Z M 7.76 3.044 L 11.669 3.044 L 11.669 0.793 L 7.76 0.793 L 7.76 3.044 Z M 18.787 10.161 L 18.787 18.571 L 21.037 18.571 L 21.037 10.161 L 18.787 10.161 Z M 11.669 3.044 C 12.274 3.044 12.392 3.05 12.492 3.074 L 13.017 0.886 C 12.599 0.786 12.166 0.793 11.669 0.793 L 11.669 3.044 Z M 15.011 2.178 C 14.66 1.827 14.36 1.517 13.992 1.29 L 12.816 3.21 C 12.903 3.263 12.993 3.342 13.419 3.769 L 15.011 2.178 Z M 12.492 3.074 C 12.605 3.102 12.716 3.148 12.816 3.21 L 13.992 1.29 C 13.691 1.106 13.361 0.969 13.017 0.886 L 12.492 3.074 Z M 7.76 21.046 C 7.112 21.046 6.693 21.045 6.373 21.019 C 6.068 20.993 5.955 20.951 5.899 20.922 L 4.878 22.927 C 5.303 23.146 5.746 23.225 6.191 23.262 C 6.623 23.297 7.148 23.296 7.76 23.296 L 7.76 21.046 Z M 3.035 18.571 C 3.035 19.182 3.034 19.707 3.069 20.141 C 3.105 20.585 3.186 21.026 3.402 21.453 L 5.408 20.431 C 5.379 20.376 5.337 20.262 5.311 19.957 C 5.287 19.638 5.286 19.219 5.286 18.571 L 3.035 18.571 Z M 5.899 20.922 C 5.688 20.815 5.516 20.644 5.408 20.431 L 3.402 21.453 C 3.726 22.089 4.243 22.604 4.878 22.927 L 5.899 20.922 Z M 16.312 23.296 C 16.922 23.296 17.448 23.297 17.882 23.262 C 18.326 23.225 18.767 23.146 19.194 22.927 L 18.172 20.922 C 18.117 20.951 18.003 20.993 17.698 21.019 C 17.379 21.045 16.96 21.046 16.312 21.046 L 16.312 23.296 Z M 18.787 18.571 C 18.787 19.219 18.786 19.638 18.76 19.957 C 18.734 20.262 18.692 20.376 18.663 20.431 L 20.668 21.453 C 20.887 21.026 20.966 20.585 21.003 20.141 C 21.038 19.707 21.037 19.182 21.037 18.571 L 18.787 18.571 Z M 19.194 22.927 C 19.829 22.604 20.345 22.089 20.668 21.453 L 18.663 20.431 C 18.556 20.644 18.385 20.815 18.172 20.922 L 19.194 22.927 Z M 18.061 8.41 C 18.489 8.836 18.567 8.926 18.621 9.013 L 20.539 7.837 C 20.315 7.471 20.004 7.17 19.652 6.818 L 18.061 8.41 Z M 21.037 10.161 C 21.037 9.664 21.044 9.232 20.943 8.814 L 18.755 9.338 C 18.78 9.438 18.787 9.558 18.787 10.161 L 21.037 10.161 Z M 18.621 9.013 C 18.682 9.113 18.728 9.224 18.755 9.338 L 20.943 8.814 C 20.861 8.469 20.725 8.139 20.539 7.837 L 18.621 9.013 Z M 5.286 5.519 C 5.286 4.87 5.287 4.452 5.311 4.132 C 5.337 3.827 5.379 3.714 5.408 3.658 L 3.402 2.636 C 3.186 3.062 3.105 3.504 3.069 3.95 C 3.034 4.381 3.035 4.907 3.035 5.519 L 5.286 5.519 Z M 7.76 0.793 C 7.148 0.793 6.623 0.793 6.191 0.828 C 5.746 0.864 5.303 0.945 4.878 1.161 L 5.899 3.166 C 5.955 3.138 6.068 3.095 6.373 3.07 C 6.693 3.044 7.112 3.044 7.76 3.044 L 7.76 0.793 Z M 5.408 3.658 C 5.516 3.447 5.688 3.274 5.899 3.166 L 4.878 1.161 C 4.243 1.485 3.726 2.002 3.402 2.636 L 5.408 3.658 Z M 12.069 12.318 L 13.758 19.069 L 15.939 18.523 L 14.253 11.772 L 12.069 12.318 Z M 15.939 19.069 L 17.629 12.318 L 15.444 11.772 L 13.758 18.523 L 15.939 19.069 Z M 10.91 17.67 C 10.371 17.67 10.023 17.669 9.756 17.651 C 9.499 17.634 9.401 17.604 9.354 17.585 L 8.493 19.663 C 8.86 19.816 9.232 19.872 9.602 19.897 C 9.964 19.921 10.401 19.92 10.91 19.92 L 10.91 17.67 Z M 6.41 15.42 C 6.41 15.929 6.409 16.367 6.434 16.728 C 6.459 17.099 6.515 17.47 6.666 17.838 L 8.746 16.975 C 8.727 16.929 8.696 16.832 8.679 16.575 C 8.661 16.309 8.66 15.96 8.66 15.42 L 6.41 15.42 Z M 9.354 17.585 C 9.079 17.471 8.86 17.252 8.746 16.975 L 6.666 17.838 C 7.01 18.663 7.667 19.322 8.493 19.663 L 9.354 17.585 Z M 10.91 10.919 C 10.401 10.919 9.964 10.919 9.602 10.944 C 9.232 10.969 8.86 11.024 8.493 11.177 L 9.354 13.256 C 9.401 13.236 9.499 13.206 9.756 13.189 C 10.023 13.17 10.371 13.169 10.91 13.169 L 10.91 10.919 Z M 8.66 15.42 C 8.66 14.879 8.661 14.532 8.679 14.265 C 8.696 14.009 8.727 13.912 8.746 13.864 L 6.666 13.003 C 6.515 13.369 6.459 13.741 6.434 14.112 C 6.409 14.473 6.41 14.911 6.41 15.42 L 8.66 15.42 Z M 8.493 11.177 C 7.667 11.519 7.01 12.177 6.666 13.003 L 8.746 13.864 C 8.86 13.59 9.079 13.368 9.354 13.256 L 8.493 11.177 Z M 12.036 2.12 L 12.036 7.545 L 14.286 7.545 L 14.286 2.12 L 12.036 2.12 Z M 14.286 9.794 L 19.709 9.794 L 19.709 7.545 L 14.286 7.545 L 14.286 9.794 Z M 12.036 7.545 C 12.036 8.787 13.043 9.794 14.286 9.794 L 14.286 7.545 L 12.036 7.545 Z M 13.419 3.769 L 18.061 8.41 L 19.652 6.818 L 15.011 2.178 L 13.419 3.769 Z" style="fill: rgb(1, 17, 31);" id="object-0"/></svg>